<svg xmlns="http://www.w3.org/2000/svg" xmlns:xlink="http://www.w3.org/1999/xlink" width="30" height="50" viewBox="0 0 584.401 728.328">  <defs>    <linearGradient id="linear-gradient" y1="0.68" x2="1" y2="0.33" gradientUnits="objectBoundingBox">      <stop offset="0" stop-color="#7655ff"/>      <stop offset="1" stop-color="#fff"/>    </linearGradient>    <linearGradient id="linear-gradient-2" y1="0.345" x2="1" y2="0.656" xlink:href="#linear-gradient"/>    <linearGradient id="linear-gradient-3" y1="0.971" x2="0" y2="-0.031" xlink:href="#linear-gradient"/>    <linearGradient id="linear-gradient-4" x1="0.02" y1="0.5" x2="1" y2="0.5" xlink:href="#linear-gradient"/>  </defs>  <g id="Group_978" data-name="Group 978" transform="translate(-703.245 3197.852)">    <path id="bg" d="M0,0H583V726.666H0Z" transform="translate(704 -3197.057)" fill="#6f00fd"/>    <g id="Group_974" data-name="Group 974" opacity="0.538">      <path id="Path_1346" data-name="Path 1346" d="M-98.562-65.557,484.832,273.459" transform="translate(802.563 -3131.5)" fill="none" stroke="#7a62ff" stroke-width="1"/>      <path id="Path_1349" data-name="Path 1349" d="M-98.562-65.557,484.832,273.459" transform="translate(802.563 -2985.5)" fill="none" stroke="#7a62ff" stroke-width="1"/>      <path id="Path_1350" data-name="Path 1350" d="M-98.562-65.557,484.832,273.459" transform="translate(802.563 -2839.5)" fill="none" stroke="#7a62ff" stroke-width="1"/>      <path id="Path_1353" data-name="Path 1353" d="M-98.562-65.557,398.188,223.109" transform="translate(802.563 -2693.5)" fill="none" stroke="#7a62ff" stroke-width="1"/>      <path id="Path_1346-2" data-name="Path 1346" d="M484.832-65.557-98.562,273.459" transform="translate(802.563 -3131.5)" fill="none" stroke="#7a62ff" stroke-width="1"/>      <path id="Path_1349-2" data-name="Path 1349" d="M484.832-65.557-98.562,273.459" transform="translate(802.563 -2985.5)" fill="none" stroke="#7a62ff" stroke-width="1"/>      <path id="Path_1350-2" data-name="Path 1350" d="M484.832-65.557-98.562,273.459" transform="translate(802.563 -2839.5)" fill="none" stroke="#7a62ff" stroke-width="1"/>      <path id="Path_1358" data-name="Path 1358" d="M0,0V726" transform="translate(1121.5 -3196.5)" fill="none" stroke="#7a62ff" stroke-width="1"/>      <line id="Line_544" data-name="Line 544" y2="726" transform="translate(995.5 -3196.5)" fill="none" stroke="#7a62ff" stroke-width="1"/>      <line id="Line_545" data-name="Line 545" y2="726" transform="translate(869.5 -3196.5)" fill="none" stroke="#7a62ff" stroke-width="1"/>    </g>    <line id="Line_539" data-name="Line 539" y2="18.652" transform="translate(888.555 -3132.5)" fill="none" stroke="#fff" stroke-linecap="square" stroke-miterlimit="10" stroke-width="2"/>    <line id="Line_546" data-name="Line 546" y2="18.652" transform="translate(746.555 -2608.5)" fill="none" stroke="#fff" stroke-linecap="square" stroke-miterlimit="10" stroke-width="2"/>    <path id="Path_1344" data-name="Path 1344" d="M137.942,17.983l165.18-95.014" transform="translate(566.652 -3023.296)" fill="none" stroke="#fff" stroke-width="2"/>    <path id="Path_1359" data-name="Path 1359" d="M329.1,32.928,137.942-77.031" transform="translate(624.658 -2503.319)" fill="none" stroke="#fff" stroke-width="2"/>    <g id="Group_970" data-name="Group 970" transform="translate(557.62 -4346.763)">      <g id="Group_950" data-name="Group 950">        <path id="Fill-1-Copy-3" d="M17.518.656-11.4,41.129,16.45,181.29,143.195,219.6l.091-146.33Z" transform="translate(420.389 1318.736)" fill-rule="evenodd" fill="url(#linear-gradient)"/>        <path id="Fill-2-Copy-3" d="M124.345.627-1.742,74.18l.44,145.289,125.648-72.656Z" transform="translate(313.615 1318.736)" fill-rule="evenodd" fill="url(#linear-gradient-2)"/>        <path id="Fill-3-Copy-3" d="M-1.677,176.527l129.149-75.309L-1.1,29.447Z" transform="translate(313.412 1508.421)" fill-rule="evenodd" fill="url(#linear-gradient-3)"/>      </g>      <path id="Fill-4-Copy-3" d="M-1.017,92.808l125.592,73.4L250.2,93.264,124.575,20.193Z" transform="translate(313.38 1445.073)" fill-rule="evenodd" fill="url(#linear-gradient-4)"/>    </g>    <line id="Line_542" data-name="Line 542" y2="27.873" transform="translate(1058.69 -2947.721)" fill="none" stroke="#fff" stroke-linecap="square" stroke-miterlimit="10" stroke-width="2"/>    <path id="Path_1357" data-name="Path 1357" d="M148.734,276.3l176.7-101.324L36.368,4.82" transform="translate(920.221 -3201.811)" fill="none" stroke="#fff" stroke-width="2"/>    <g id="Group_971" data-name="Group 971" transform="translate(658 -2908.207)">      <line id="Line_524" data-name="Line 524" y2="26.899" transform="translate(487.65 288.825)" fill="none" stroke="#fff" stroke-linecap="square" stroke-miterlimit="10" stroke-width="2"/>      <path id="Path_1298" data-name="Path 1298" d="M1480.119,583.176a55.708,55.708,0,0,0,7.348,4.5c34.6,17.888,50.575-13.057,85.133,4.787s18.584,48.79,53.187,66.679,50.575-13.057,85.176,4.788,18.585,48.79,53.186,66.679,50.575-13.057,85.176,4.788c32.872,16.952,20.1,45.728,48.634,64.045" transform="translate(-1434.281 -490)" fill="none" stroke="#fff" stroke-miterlimit="10" stroke-width="2"/>    </g>  </g></svg>